<svg width="253" height="51" viewBox="0 0 253 51" fill="none" xmlns="http://www.w3.org/2000/svg">
<path d="M252.858 21.084H248.763V36.4933H252.858V21.084ZM253 16.8821C253 15.6059 252.118 14.6963 250.786 14.6963C249.51 14.6963 248.6 15.6127 248.6 16.8821C248.6 18.1243 249.483 19.0679 250.786 19.0679C252.056 19.0679 253 18.2058 253 16.8821ZM245.136 27.1459C245.136 22.6928 243.058 20.7785 240.375 20.7785C238.657 20.7785 237.081 21.4709 235.805 23.3513H235.75C235.139 21.7764 233.699 20.7785 231.818 20.7785C229.523 20.7785 228.164 22.0479 227.444 23.1612H227.363L227.166 21.084H223.675C223.73 22.4417 223.784 23.9079 223.784 25.7136V36.4933H227.798V27.207C227.798 25.1502 229.129 24.098 230.263 24.098C231.866 24.098 232.45 25.5643 232.45 27.3903V36.4933H236.463V27.1459C236.463 24.9873 237.733 24.1048 238.874 24.1048C240.504 24.1048 241.116 25.571 241.116 27.784V36.5001H245.129V27.1459H245.136ZM209.868 21.084V24.3763H216.32V24.4578C215.655 25.2588 214.989 26.0869 214.296 27.0305L209.339 34.0563V36.4933H221.298V33.201H214.269V33.1467C214.935 32.3729 215.655 31.4564 216.347 30.5197L221.135 23.6568V21.084H209.868ZM206.88 21.084H202.785V36.4933H206.88V21.084ZM207.016 16.8821C207.016 15.6059 206.133 14.6963 204.802 14.6963C203.525 14.6963 202.615 15.6127 202.615 16.8821C202.615 18.1243 203.498 19.0679 204.802 19.0679C206.079 19.0679 207.016 18.2058 207.016 16.8821ZM199.131 27.0441C199.131 22.7471 196.944 20.7785 194.119 20.7785C191.878 20.7785 190.357 22.0479 189.664 23.1884H189.582L189.385 21.084H185.84C185.895 22.4417 185.949 23.9079 185.949 25.7136V36.4933H190.044V27.3224C190.044 24.9873 191.565 24.1251 192.673 24.1251C194.418 24.1251 195.022 25.6186 195.022 27.4989V36.4933H199.118V27.0441H199.131ZM178.309 31.2121C178.309 33.1739 176.706 33.8663 175.735 33.8663C174.709 33.8663 173.799 33.2282 173.799 31.7619C173.799 29.5218 176.095 28.9923 178.309 28.9923V31.2121ZM182.295 27.2002C182.295 23.8265 180.991 20.7785 176.203 20.7785C173.792 20.7785 171.884 21.4709 170.859 22.0819L171.633 24.7361C172.631 24.1251 174.017 23.6839 175.422 23.6839C177.663 23.6839 178.193 24.8447 178.193 26.3653C173.297 26.3653 169.779 28.2185 169.779 32.176C169.779 34.6673 171.551 36.7988 174.404 36.7988C176.122 36.7988 177.616 36.1064 178.499 34.8913H178.58L178.832 36.4933H182.513C182.35 35.5497 182.288 34.1989 182.288 32.8412V27.2002H182.295ZM167.13 27.2817C167.13 22.7471 164.97 20.7514 162.233 20.7514C160.902 20.7514 159.218 21.3352 158.111 22.9372H158.057V15.2326H153.962V36.5001H158.057V27.1459C158.057 24.8515 159.632 24.1319 160.658 24.1319C162.43 24.1319 163.042 25.6525 163.042 27.6211V36.5001H167.137V27.2817H167.13ZM141.771 27.1731C141.88 25.6525 142.715 23.6025 144.678 23.6025C146.701 23.6025 147.333 25.5643 147.306 27.1731H141.771ZM149.744 33.0653C148.691 33.425 147.503 33.7033 145.982 33.7033C143.768 33.7033 141.886 32.6512 141.771 30.0241H150.987C151.068 29.5829 151.096 28.9991 151.096 28.3949C151.096 23.4124 148.657 20.7582 144.922 20.7582C140.413 20.7582 137.866 24.58 137.866 29.0059C137.866 33.7916 140.576 36.7784 145.343 36.7784C147.252 36.7784 149.051 36.4458 150.328 35.8959L149.744 33.0653ZM134.103 15.219H129.064L126.653 23.2155C125.933 25.7611 125.295 28.3339 124.799 30.7165H124.718C124.249 28.2795 123.638 25.7883 122.945 23.2155L120.65 15.219H115.583L114.144 36.5001H117.879L118.293 28.3067C118.429 25.6797 118.572 22.5231 118.626 19.8418H118.707C119.203 22.4417 119.869 25.3199 120.561 27.7297L122.911 36.1946H126.015L128.616 27.5871C129.336 25.2045 130.11 22.3874 130.721 19.8418H130.803C130.776 22.5231 130.911 25.4013 131.027 28.2252L131.414 36.5001H135.319L134.103 15.219ZM108.717 31.6533C108.717 32.7598 107.61 35.4411 104.398 35.4411C102.904 35.4411 101.545 34.4976 101.545 32.4272C101.545 28.938 105.586 28.5511 108.717 28.5511V31.6533ZM110.408 27.0916C110.408 24.2677 109.464 21.1723 105.233 21.1723C103.766 21.1723 102.13 21.5863 100.832 22.4485L101.328 23.6635C102.381 22.9168 103.739 22.5571 105.009 22.5571C108.69 22.5571 108.69 25.7407 108.69 27.207C102.822 27.1527 99.7458 29.1688 99.7458 32.6851C99.7458 34.7352 101.186 36.8327 104.119 36.8327C106.388 36.8327 108.024 35.6176 108.744 34.4229H108.826L109.023 36.5001H110.598C110.435 35.3936 110.401 34.1174 110.401 32.9295V27.0916H110.408ZM98.1702 21.2537C97.946 21.2266 97.7559 21.1723 97.5318 21.1723C95.5691 21.1723 94.0138 22.6385 93.3822 24.4917H93.2736L93.2192 21.532H91.6708C91.7523 23.0255 91.7795 24.4849 91.7795 25.9783V36.5001H93.4977V28.2388C93.4977 25.5167 94.9375 22.8286 97.4299 22.8286C97.7355 22.8286 97.9528 22.8286 98.1769 22.8829V21.2537H98.1702ZM82.8895 27.7433L88.7573 21.5253H86.6791L81.6671 27.0237C81.2256 27.5193 80.6416 28.2117 80.2816 28.6801H80.2273V15.2393H78.5091V36.4933H80.2273V30.3567L81.6942 28.7819L87.4805 36.4865H89.5587L82.8895 27.7433ZM74.3052 22.109C73.5038 21.5863 72.3425 21.1655 70.957 21.1655C68.0503 21.1655 66.2777 23.073 66.2777 25.2859C66.2777 27.0848 67.636 28.4425 70.0673 29.4064C72.1727 30.2617 73.0827 31.1238 73.0827 32.6715C73.0827 34.1921 72.0029 35.414 69.7617 35.414C68.4306 35.414 67.215 34.8573 66.4407 34.389L65.8567 35.7738C66.855 36.3847 68.2065 36.7988 69.6802 36.7988C72.6685 36.7988 74.7738 35.1968 74.7738 32.4543C74.7738 30.2142 73.334 28.9923 70.9231 28.0284C68.9332 27.1731 67.962 26.535 67.962 25.0416C67.962 23.7111 68.9332 22.5503 70.7601 22.5503C72.1727 22.5503 73.1439 23.1069 73.6668 23.4667L74.3052 22.109ZM60.3828 36.5001H62.101V15.2393H60.3828V36.5001Z" fill="black"/>
<path fill-rule="evenodd" clip-rule="evenodd" d="M44.5108 10.8883H37.4817L34.12 22.0414C33.1149 25.5916 32.2252 29.1826 31.5325 32.5021H31.417C30.7582 29.1079 29.9093 25.6324 28.9449 22.0414L25.7394 10.8883H18.6763L16.6661 40.5665H21.8819L22.4592 29.1419C22.6493 25.4762 22.8463 21.0775 22.921 17.3304H23.0364C23.7291 20.9553 24.6596 24.9739 25.624 28.3273L28.9042 40.1388H33.2303L36.8569 28.1372C37.8621 24.8178 38.9419 20.8806 39.7908 17.3304H39.9063C39.8655 21.0707 40.0625 25.0893 40.2187 29.0265L40.762 40.5665H46.2087L44.5108 10.8883ZM6.37033 40.5665H12.0819V10.8883H6.37033V40.5665ZM0 0H51.3769V51H0V0Z" fill="black"/>
</svg>
