<svg width="27" height="17" viewBox="0 0 27 17" fill="none" xmlns="http://www.w3.org/2000/svg">
<g clip-path="url(#clip0)">
<path d="M20.3388 14.853C20.3374 14.867 20.3344 14.8794 20.3329 14.8934C20.3299 14.9121 20.3284 14.9308 20.324 14.9479C20.321 14.9572 20.318 14.965 20.3151 14.9743C20.3076 14.9961 20.3002 15.0179 20.2913 15.0381C20.2883 15.0444 20.2853 15.049 20.2809 15.0553C20.269 15.0786 20.2556 15.1004 20.2407 15.1206C20.2392 15.1222 20.2392 15.1237 20.2377 15.1237L18.9293 16.8197C18.8371 16.9379 18.7033 17.0002 18.568 17.0002C18.4654 17.0002 18.3628 16.9644 18.2766 16.8928C18.0773 16.7248 18.0461 16.4198 18.2067 16.2113L18.7851 15.4614C17.1257 15.6652 15.3222 15.7725 13.4978 15.7725C6.95556 15.7694 0 14.3193 0 11.6338C0 10.0047 2.45482 9.02445 4.51561 8.48765C4.76392 8.4223 5.0152 8.581 5.07765 8.84085C5.1401 9.10069 4.98844 9.36364 4.74013 9.42899C1.92549 10.1618 0.926318 11.0736 0.926318 11.6338C0.926318 12.9563 5.70957 14.8001 13.4993 14.8001C15.3132 14.8001 17.1034 14.6912 18.7464 14.4873L17.9658 13.8276C17.7666 13.6596 17.7353 13.3546 17.8959 13.1461C18.0565 12.9376 18.3479 12.905 18.5472 13.073L20.1679 14.4422C20.1797 14.4516 20.1887 14.464 20.1991 14.4749C20.208 14.4827 20.2154 14.4905 20.2229 14.4998C20.2362 14.5153 20.2467 14.5309 20.2571 14.5465C20.263 14.5558 20.2704 14.5651 20.2764 14.576C20.2853 14.5931 20.2942 14.6118 20.3017 14.6289C20.3061 14.6398 20.3106 14.6507 20.3151 14.6616C20.321 14.6818 20.3255 14.7005 20.3299 14.7207C20.3314 14.7301 20.3344 14.7378 20.3359 14.7472C20.3359 14.7503 20.3359 14.7534 20.3359 14.755C20.3388 14.7736 20.3388 14.7923 20.3388 14.811C20.3388 14.825 20.3388 14.839 20.3388 14.853ZM22.2019 8.41607C21.9536 8.35384 21.7038 8.51565 21.6443 8.77705C21.5863 9.03845 21.741 9.29829 21.9893 9.36053C25.0031 10.1012 26.0722 11.0472 26.0722 11.6338C26.0722 12.1581 25.2262 12.9703 22.8502 13.6736C22.6033 13.7467 22.4606 14.0143 22.5305 14.2726C22.5885 14.4858 22.7743 14.6258 22.9765 14.6258C23.0182 14.6258 23.0613 14.6196 23.1029 14.6071C25.6529 13.851 27 12.824 27 11.6338C27 9.94867 24.3906 8.95443 22.2019 8.41607ZM6.54221 10.1027C7.00909 10.4917 7.55625 10.6877 8.18371 10.6877C8.90335 10.6877 9.49513 10.4824 9.95754 10.0716C10.42 9.66082 10.6504 9.09446 10.6504 8.37251C10.6504 7.91973 10.5508 7.53386 10.3516 7.21489C10.1523 6.89592 9.8713 6.65942 9.50702 6.50227C9.82967 6.33268 10.0839 6.09462 10.2698 5.78965C10.4571 5.48469 10.5508 5.15016 10.5508 4.78452C10.5508 4.06723 10.3367 3.51487 9.90996 3.12745C9.48174 2.74002 8.91079 2.54553 8.19263 2.54553C7.55625 2.54553 7.01949 2.74469 6.58236 3.14301C6.1467 3.54133 5.93706 4.05323 5.95341 4.6756L5.96382 4.70828H7.39716C7.39716 4.42199 7.47299 4.19015 7.62614 4.01277C7.7778 3.8354 7.96663 3.74671 8.19263 3.74671C8.46621 3.74671 8.68032 3.84785 8.83644 4.05167C8.99257 4.25394 9.06988 4.50601 9.06988 4.80786C9.06988 5.16261 8.99554 5.44112 8.84685 5.64184C8.69817 5.84256 8.47514 5.94369 8.17628 5.94369H7.41351V7.10753H8.17776C8.50339 7.10753 8.75169 7.20867 8.92268 7.40938C9.09367 7.6101 9.17991 7.9244 9.17991 8.35228C9.17991 8.68525 9.08773 8.9591 8.90484 9.17226C8.72196 9.38542 8.48108 9.49278 8.18371 9.49278C7.93094 9.49278 7.7213 9.38854 7.55477 9.18004C7.38824 8.97154 7.30497 8.71326 7.30497 8.40518H5.87609L5.86569 8.43786C5.84933 9.15826 6.07385 9.71373 6.54221 10.1027ZM11.8191 9.84442C11.3656 9.28273 11.1396 8.5141 11.1396 7.54008V5.82855C11.1396 4.82809 11.3968 4.03145 11.9128 3.43708C12.4287 2.84271 13.0889 2.54553 13.8918 2.54553C14.1579 2.54553 14.4018 2.57353 14.6218 2.62955C14.8419 2.68556 15.0664 2.76958 15.2939 2.88161L15.0397 4.01744C14.8389 3.93342 14.6546 3.87118 14.4865 3.82917C14.3185 3.78716 14.1237 3.76694 13.9022 3.76694C13.5141 3.76694 13.2019 3.94431 12.9625 4.29751C12.7231 4.65071 12.6042 5.15016 12.6042 5.79432V6.03394C12.7811 5.83478 12.9922 5.68074 13.2405 5.57182C13.4874 5.46291 13.7654 5.40845 14.0747 5.40845C14.656 5.40845 15.108 5.64962 15.4307 6.13196C15.7533 6.6143 15.9139 7.24601 15.9139 8.02865C15.9139 8.81128 15.6983 9.44922 15.2671 9.944C14.8359 10.4388 14.2754 10.6862 13.587 10.6862C12.8614 10.6877 12.2726 10.4077 11.8191 9.84442ZM12.6042 7.56187C12.6042 8.1749 12.6934 8.64947 12.8718 8.98555C13.0502 9.32319 13.2881 9.49123 13.5855 9.49123C13.8457 9.49123 14.0524 9.35119 14.2085 9.07268C14.3646 8.79417 14.4419 8.44564 14.4419 8.02865C14.4419 7.57898 14.3631 7.22734 14.2055 6.97217C14.0479 6.71699 13.8383 6.58941 13.5751 6.58941C13.3461 6.58941 13.1513 6.63142 12.9878 6.71699C12.8242 6.80257 12.6963 6.92082 12.6027 7.0733V7.56187H12.6042ZM20.4489 3.34839C20.8771 3.88363 21.0897 4.61181 21.0897 5.53604V7.70501C21.0897 8.63702 20.8771 9.36675 20.4504 9.89577C20.0251 10.4248 19.4631 10.6893 18.7672 10.6893C18.061 10.6893 17.4945 10.4248 17.0662 9.89577C16.638 9.36675 16.4254 8.63702 16.4254 7.70501V5.53604C16.4254 4.61181 16.638 3.88363 17.0648 3.34839C17.49 2.8147 18.055 2.54708 18.7583 2.54708C19.4586 2.54553 20.0207 2.81315 20.4489 3.34839ZM19.6207 5.39911C19.6207 4.87788 19.5434 4.47178 19.3902 4.18237C19.2356 3.89297 19.0259 3.74827 18.7598 3.74827C18.4862 3.74827 18.2736 3.89297 18.1234 4.18237C17.9732 4.47178 17.8974 4.87788 17.8974 5.39911V7.82793C17.8974 8.36006 17.9732 8.77083 18.1264 9.05868C18.278 9.34653 18.4936 9.49123 18.7702 9.49123C19.0363 9.49123 19.246 9.34653 19.3962 9.05868C19.5463 8.77083 19.6222 8.36006 19.6222 7.82793V5.39911H19.6207ZM21.9075 5.32598C21.6711 5.0537 21.5521 4.69583 21.5521 4.26484V3.80272C21.5521 3.37328 21.6711 3.01697 21.906 2.74157C22.1454 2.46151 22.468 2.31836 22.8635 2.31836C23.259 2.31836 23.5817 2.45995 23.8226 2.74157C24.059 3.01697 24.1779 3.37484 24.1779 3.80272V4.26484C24.1779 4.69583 24.059 5.0537 23.8241 5.32598C23.5847 5.6045 23.2635 5.74453 22.8695 5.74453C22.471 5.74453 22.1484 5.60294 21.9075 5.32598ZM22.4457 4.26484C22.4457 4.45155 22.4844 4.59936 22.5617 4.70672C22.6301 4.80163 22.7282 4.8452 22.8695 4.8452C23.0048 4.8452 23.0985 4.80163 23.1669 4.70672C23.2442 4.60092 23.2828 4.45155 23.2828 4.26484V3.80272C23.2828 3.62223 23.2427 3.47442 23.1654 3.36706C23.0955 3.27059 22.9988 3.22547 22.8621 3.22547C22.7238 3.22547 22.6271 3.27059 22.5602 3.3655C22.4844 3.47286 22.4457 3.62068 22.4457 3.80272V4.26484Z" fill="black"/>
</g>
<defs>
<clipPath id="clip0">
<rect width="27" height="17" fill="white"/>
</clipPath>
</defs>
</svg>
