<svg width="74" height="49" viewBox="0 0 74 49" fill="none" xmlns="http://www.w3.org/2000/svg">
<path d="M66.1314 38.308V26.3953C66.1315 25.1976 65.924 24.009 65.5184 22.8832L59.1331 5.95318C58.574 4.48575 57.5836 3.22522 56.2942 2.34013C55.0048 1.45504 53.4779 0.987582 51.9177 1.00025H21.6001C20.0486 0.998053 18.5329 1.4704 17.2537 2.3548C15.9744 3.2392 14.9918 4.49399 14.4358 5.95318L8.05047 22.8832C7.64483 24.009 7.43741 25.1976 7.4375 26.3953V38.308C7.4375 38.9904 7.70659 39.6449 8.18559 40.1274C8.66458 40.6099 9.31423 40.881 9.99163 40.881H63.6284C64.2969 40.8675 64.9335 40.5905 65.4015 40.1094C65.8695 39.6284 66.1315 38.9816 66.1314 38.308Z" stroke="url(#paint0_linear)" stroke-width="2" stroke-linecap="round" stroke-linejoin="round"/>
<path d="M7.38672 38.3086V44.741C7.38672 45.4234 7.65581 46.0778 8.1348 46.5603C8.6138 47.0428 9.26345 47.3139 9.94085 47.3139H13.772C14.4494 47.3139 15.0991 47.0428 15.5781 46.5603C16.0571 46.0778 16.3262 45.4234 16.3262 44.741V40.8815" stroke="url(#paint1_linear)" stroke-width="2" stroke-miterlimit="10"/>
<path d="M66.1309 38.3086V44.741C66.1309 45.4234 65.8618 46.0778 65.3828 46.5603C64.9038 47.0428 64.2541 47.3139 63.5767 47.3139H59.7455C59.0681 47.3139 58.4185 47.0428 57.9395 46.5603C57.4605 46.0778 57.1914 45.4234 57.1914 44.741V40.8815" stroke="url(#paint2_linear)" stroke-width="2" stroke-miterlimit="10"/>
<path d="M9.93945 19.0117L11.804 19.6421C13.1054 20.0777 14.4681 20.2992 15.8395 20.2982H57.6762C59.0476 20.2992 60.4102 20.0777 61.7117 19.6421L63.5762 19.0117" stroke="url(#paint3_linear)" stroke-width="2" stroke-linecap="round" stroke-linejoin="round"/>
<path d="M20.1563 31.8764H15.048C14.0319 31.8764 13.0574 31.4698 12.3389 30.746C11.6205 30.0222 11.2168 29.0405 11.2168 28.0169C11.2168 27.6757 11.3514 27.3485 11.5909 27.1073C11.8304 26.866 12.1552 26.7305 12.4939 26.7305H17.6021C18.6182 26.7305 19.5927 27.1371 20.3112 27.8609C21.0297 28.5846 21.4333 29.5663 21.4333 30.5899C21.4333 30.9311 21.2988 31.2583 21.0593 31.4996C20.8198 31.7408 20.495 31.8764 20.1563 31.8764Z" stroke="url(#paint4_linear)" stroke-width="2" stroke-miterlimit="10"/>
<path d="M46.9741 35.7354H26.541" stroke="url(#paint5_linear)" stroke-width="2" stroke-miterlimit="10" stroke-linecap="round"/>
<path d="M58.4674 31.8764H53.3591C53.0204 31.8764 52.6956 31.7408 52.4561 31.4996C52.2166 31.2583 52.082 30.9311 52.082 30.5899C52.082 29.5663 52.4857 28.5846 53.2042 27.8609C53.9227 27.1371 54.8971 26.7305 55.9132 26.7305H61.0215C61.3602 26.7305 61.685 26.866 61.9245 27.1073C62.164 27.3485 62.2986 27.6757 62.2986 28.0169C62.2986 29.0405 61.8949 30.0222 61.1764 30.746C60.4579 31.4698 59.4835 31.8764 58.4674 31.8764Z" stroke="url(#paint6_linear)" stroke-width="2" stroke-miterlimit="10"/>
<path d="M8.66239 17.724H4.19266C3.34592 17.724 2.53386 17.3852 1.93512 16.782C1.33638 16.1789 1 15.3608 1 14.5078V14.5078C1 13.996 1.20181 13.5052 1.56105 13.1433C1.9203 12.7814 2.40755 12.5781 2.9156 12.5781H6.74679C7.25484 12.5781 7.74209 12.7814 8.10134 13.1433C8.46058 13.5052 8.66239 13.996 8.66239 14.5078V17.724Z" stroke="url(#paint7_linear)" stroke-width="2" stroke-miterlimit="10"/>
<path d="M64.8516 17.724H69.3213C70.168 17.724 70.9801 17.3852 71.5788 16.782C72.1776 16.1789 72.514 15.3608 72.514 14.5078V14.5078C72.514 13.996 72.3121 13.5052 71.9529 13.1433C71.5937 12.7814 71.1064 12.5781 70.5984 12.5781H66.7672C66.2591 12.5781 65.7719 12.7814 65.4126 13.1433C65.0534 13.5052 64.8516 13.996 64.8516 14.5078V17.724Z" stroke="url(#paint8_linear)" stroke-width="2" stroke-miterlimit="10"/>
<defs>
<linearGradient id="paint0_linear" x1="82.2024" y1="58.5425" x2="10.2176" y2="-2.28983" gradientUnits="userSpaceOnUse">
<stop stop-color="#4817AF"/>
<stop offset="1" stop-color="#00468A"/>
</linearGradient>
<linearGradient id="paint1_linear" x1="18.7739" y1="51.302" x2="4.58913" y2="43.2166" gradientUnits="userSpaceOnUse">
<stop stop-color="#4817AF"/>
<stop offset="1" stop-color="#00468A"/>
</linearGradient>
<linearGradient id="paint2_linear" x1="68.5786" y1="51.302" x2="54.3938" y2="43.2166" gradientUnits="userSpaceOnUse">
<stop stop-color="#4817AF"/>
<stop offset="1" stop-color="#00468A"/>
</linearGradient>
<linearGradient id="paint3_linear" x1="78.2624" y1="20.8679" x2="78.066" y2="16.166" gradientUnits="userSpaceOnUse">
<stop stop-color="#4817AF"/>
<stop offset="1" stop-color="#00468A"/>
</linearGradient>
<linearGradient id="paint4_linear" x1="24.2307" y1="34.1553" x2="14.8908" y2="23.5077" gradientUnits="userSpaceOnUse">
<stop stop-color="#4817AF"/>
<stop offset="1" stop-color="#00468A"/>
</linearGradient>
<linearGradient id="paint5_linear" x1="52.5688" y1="37.1782" x2="52.259" y2="33.5434" gradientUnits="userSpaceOnUse">
<stop stop-color="#4817AF"/>
<stop offset="1" stop-color="#00468A"/>
</linearGradient>
<linearGradient id="paint6_linear" x1="65.0959" y1="34.1553" x2="55.756" y2="23.5077" gradientUnits="userSpaceOnUse">
<stop stop-color="#4817AF"/>
<stop offset="1" stop-color="#00468A"/>
</linearGradient>
<linearGradient id="paint7_linear" x1="10.7604" y1="20.0029" x2="1.45463" y2="12.0464" gradientUnits="userSpaceOnUse">
<stop stop-color="#4817AF"/>
<stop offset="1" stop-color="#00468A"/>
</linearGradient>
<linearGradient id="paint8_linear" x1="74.612" y1="20.0029" x2="65.3062" y2="12.0464" gradientUnits="userSpaceOnUse">
<stop stop-color="#4817AF"/>
<stop offset="1" stop-color="#00468A"/>
</linearGradient>
</defs>
</svg>
