<svg width="53" height="58" viewBox="0 0 53 58" fill="none" xmlns="http://www.w3.org/2000/svg">
<path d="M16.3105 7.76L25.3422 1.3687C25.6811 1.12882 26.0861 1 26.5013 1C26.9166 1 27.3216 1.12882 27.6605 1.3687L52.0005 18.5935" stroke="url(#paint0_linear)" stroke-width="2" stroke-linecap="round" stroke-linejoin="round"/>
<path d="M1 18.5933L8.72613 13.126" stroke="url(#paint1_linear)" stroke-width="2" stroke-linecap="round" stroke-linejoin="round"/>
<path d="M8.72656 13.1256V4.79788C8.72656 4.52256 8.83594 4.25851 9.03062 4.06382C9.2253 3.86914 9.48935 3.75977 9.76468 3.75977H15.2711C15.4075 3.75961 15.5427 3.78634 15.6688 3.83844C15.7948 3.89054 15.9094 3.96698 16.006 4.06339C16.1025 4.1598 16.1791 4.2743 16.2313 4.40033C16.2836 4.52636 16.3104 4.66145 16.3104 4.79788V7.75937" stroke="url(#paint2_linear)" stroke-width="2" stroke-linecap="round" stroke-linejoin="round"/>
<path d="M46.9941 29.9591V15.375" stroke="url(#paint3_linear)" stroke-width="2" stroke-linecap="round" stroke-linejoin="round"/>
<path d="M6.00586 41.8936V54.8461C6.00586 55.2785 6.17763 55.6932 6.48337 55.9989C6.78912 56.3047 7.2038 56.4764 7.63619 56.4764H45.362C45.7944 56.4764 46.2091 56.3047 46.5148 55.9989C46.8206 55.6932 46.9924 55.2785 46.9924 54.8461V41.8936" stroke="url(#paint4_linear)" stroke-width="2" stroke-linecap="round" stroke-linejoin="round"/>
<path d="M6.00586 15.375V29.9591" stroke="url(#paint5_linear)" stroke-width="2" stroke-linecap="round" stroke-linejoin="round"/>
<path d="M11.9109 24.9253C13.3934 24.9253 14.5952 23.7235 14.5952 22.241C14.5952 20.7585 13.3934 19.5566 11.9109 19.5566C10.4284 19.5566 9.22656 20.7585 9.22656 22.241C9.22656 23.7235 10.4284 24.9253 11.9109 24.9253Z" stroke="url(#paint6_linear)" stroke-width="2" stroke-linecap="round" stroke-linejoin="round"/>
<path d="M41.0867 24.9253C42.5692 24.9253 43.771 23.7235 43.771 22.241C43.771 20.7585 42.5692 19.5566 41.0867 19.5566C39.6042 19.5566 38.4023 20.7585 38.4023 22.241C38.4023 23.7235 39.6042 24.9253 41.0867 24.9253Z" stroke="url(#paint7_linear)" stroke-width="2" stroke-linecap="round" stroke-linejoin="round"/>
<path d="M11.9109 53.3814C13.3934 53.3814 14.5952 52.1796 14.5952 50.697C14.5952 49.2145 13.3934 48.0127 11.9109 48.0127C10.4284 48.0127 9.22656 49.2145 9.22656 50.697C9.22656 52.1796 10.4284 53.3814 11.9109 53.3814Z" stroke="url(#paint8_linear)" stroke-width="2" stroke-linecap="round" stroke-linejoin="round"/>
<path d="M41.0867 53.3814C42.5692 53.3814 43.771 52.1796 43.771 50.697C43.771 49.2145 42.5692 48.0127 41.0867 48.0127C39.6042 48.0127 38.4023 49.2145 38.4023 50.697C38.4023 52.1796 39.6042 53.3814 41.0867 53.3814Z" stroke="url(#paint9_linear)" stroke-width="2" stroke-linecap="round" stroke-linejoin="round"/>
<path d="M49.3152 38.6099C50.7977 38.6099 51.9995 37.4081 51.9995 35.9255C51.9995 34.443 50.7977 33.2412 49.3152 33.2412C47.8327 33.2412 46.6309 34.443 46.6309 35.9255C46.6309 37.4081 47.8327 38.6099 49.3152 38.6099Z" stroke="url(#paint10_linear)" stroke-width="2" stroke-linecap="round" stroke-linejoin="round"/>
<path d="M3.68434 38.6099C5.16686 38.6099 6.36868 37.4081 6.36868 35.9255C6.36868 34.443 5.16686 33.2412 3.68434 33.2412C2.20182 33.2412 1 34.443 1 35.9255C1 37.4081 2.20182 38.6099 3.68434 38.6099Z" stroke="url(#paint11_linear)" stroke-width="2" stroke-linecap="round" stroke-linejoin="round"/>
<path d="M6.36914 35.9258H15.5279" stroke="url(#paint12_linear)" stroke-width="2" stroke-linecap="round" stroke-linejoin="round"/>
<path d="M37.4707 35.9258H46.6295" stroke="url(#paint13_linear)" stroke-width="2" stroke-linecap="round" stroke-linejoin="round"/>
<path d="M11.9121 24.9258V31.2429H15.5282" stroke="url(#paint14_linear)" stroke-width="2" stroke-linecap="round" stroke-linejoin="round"/>
<path d="M41.0868 24.9258V31.2429H37.4707" stroke="url(#paint15_linear)" stroke-width="2" stroke-linecap="round" stroke-linejoin="round"/>
<path d="M11.9121 48.013V41.6963H15.5282" stroke="url(#paint16_linear)" stroke-width="2" stroke-linecap="round" stroke-linejoin="round"/>
<path d="M41.0868 48.013V41.6963H37.4707" stroke="url(#paint17_linear)" stroke-width="2" stroke-linecap="round" stroke-linejoin="round"/>
<path d="M25.041 37.9681C25.4276 37.5814 25.952 37.3643 26.4987 37.3643C27.0455 37.3643 27.5698 37.5814 27.9565 37.9681" stroke="url(#paint18_linear)" stroke-width="2" stroke-linecap="round" stroke-linejoin="round"/>
<path d="M22.9902 35.9155C23.451 35.4547 23.9981 35.0891 24.6002 34.8397C25.2023 34.5903 25.8476 34.4619 26.4993 34.4619C27.151 34.4619 27.7963 34.5903 28.3984 34.8397C29.0005 35.0891 29.5476 35.4547 30.0084 35.9155" stroke="url(#paint19_linear)" stroke-width="2" stroke-linecap="round" stroke-linejoin="round"/>
<path d="M20.8516 33.7769C23.9708 30.6577 29.0285 30.6577 32.1477 33.7769" stroke="url(#paint20_linear)" stroke-width="2" stroke-linecap="round" stroke-linejoin="round"/>
<path d="M32.0806 19.1338H20.921C19.5893 19.1338 18.5098 20.2133 18.5098 21.545V48.4117C18.5098 49.7434 19.5893 50.8229 20.921 50.8229H32.0806C33.4123 50.8229 34.4919 49.7434 34.4919 48.4117V21.545C34.4919 20.2133 33.4123 19.1338 32.0806 19.1338Z" stroke="url(#paint21_linear)" stroke-width="2" stroke-linecap="round" stroke-linejoin="round"/>
<defs>
<linearGradient id="paint0_linear" x1="61.7728" y1="26.385" x2="29.9369" y2="-10.6982" gradientUnits="userSpaceOnUse">
<stop stop-color="#4817AF"/>
<stop offset="1" stop-color="#00468A"/>
</linearGradient>
<linearGradient id="paint1_linear" x1="10.8416" y1="21.0145" x2="1.04762" y2="13.0673" gradientUnits="userSpaceOnUse">
<stop stop-color="#4817AF"/>
<stop offset="1" stop-color="#00468A"/>
</linearGradient>
<linearGradient id="paint2_linear" x1="18.387" y1="17.2733" x2="5.27743" y2="11.178" gradientUnits="userSpaceOnUse">
<stop stop-color="#4817AF"/>
<stop offset="1" stop-color="#00468A"/>
</linearGradient>
<linearGradient id="paint3_linear" x1="48.268" y1="36.4178" x2="46.1689" y2="36.3352" gradientUnits="userSpaceOnUse">
<stop stop-color="#4817AF"/>
<stop offset="1" stop-color="#00468A"/>
</linearGradient>
<linearGradient id="paint4_linear" x1="58.2148" y1="62.9346" x2="34.3099" y2="24.3554" gradientUnits="userSpaceOnUse">
<stop stop-color="#4817AF"/>
<stop offset="1" stop-color="#00468A"/>
</linearGradient>
<linearGradient id="paint5_linear" x1="7.27967" y1="36.4178" x2="5.18062" y2="36.3352" gradientUnits="userSpaceOnUse">
<stop stop-color="#4817AF"/>
<stop offset="1" stop-color="#00468A"/>
</linearGradient>
<linearGradient id="paint6_linear" x1="16.0652" y1="27.3029" x2="7.57723" y2="22.429" gradientUnits="userSpaceOnUse">
<stop stop-color="#4817AF"/>
<stop offset="1" stop-color="#00468A"/>
</linearGradient>
<linearGradient id="paint7_linear" x1="45.241" y1="27.3029" x2="36.753" y2="22.429" gradientUnits="userSpaceOnUse">
<stop stop-color="#4817AF"/>
<stop offset="1" stop-color="#00468A"/>
</linearGradient>
<linearGradient id="paint8_linear" x1="16.0652" y1="55.7589" x2="7.57723" y2="50.8851" gradientUnits="userSpaceOnUse">
<stop stop-color="#4817AF"/>
<stop offset="1" stop-color="#00468A"/>
</linearGradient>
<linearGradient id="paint9_linear" x1="45.241" y1="55.7589" x2="36.753" y2="50.8851" gradientUnits="userSpaceOnUse">
<stop stop-color="#4817AF"/>
<stop offset="1" stop-color="#00468A"/>
</linearGradient>
<linearGradient id="paint10_linear" x1="53.4695" y1="40.9874" x2="44.9815" y2="36.1136" gradientUnits="userSpaceOnUse">
<stop stop-color="#4817AF"/>
<stop offset="1" stop-color="#00468A"/>
</linearGradient>
<linearGradient id="paint11_linear" x1="7.83867" y1="40.9874" x2="-0.649334" y2="36.1136" gradientUnits="userSpaceOnUse">
<stop stop-color="#4817AF"/>
<stop offset="1" stop-color="#00468A"/>
</linearGradient>
<linearGradient id="paint12_linear" x1="18.0357" y1="37.3686" x2="17.3638" y2="33.8352" gradientUnits="userSpaceOnUse">
<stop stop-color="#4817AF"/>
<stop offset="1" stop-color="#00468A"/>
</linearGradient>
<linearGradient id="paint13_linear" x1="49.1373" y1="37.3686" x2="48.4654" y2="33.8352" gradientUnits="userSpaceOnUse">
<stop stop-color="#4817AF"/>
<stop offset="1" stop-color="#00468A"/>
</linearGradient>
<linearGradient id="paint14_linear" x1="16.5183" y1="34.0405" x2="9.65743" y2="31.7854" gradientUnits="userSpaceOnUse">
<stop stop-color="#4817AF"/>
<stop offset="1" stop-color="#00468A"/>
</linearGradient>
<linearGradient id="paint15_linear" x1="42.0769" y1="34.0405" x2="35.216" y2="31.7854" gradientUnits="userSpaceOnUse">
<stop stop-color="#4817AF"/>
<stop offset="1" stop-color="#00468A"/>
</linearGradient>
<linearGradient id="paint16_linear" x1="16.5183" y1="50.8104" x2="9.65752" y2="48.5552" gradientUnits="userSpaceOnUse">
<stop stop-color="#4817AF"/>
<stop offset="1" stop-color="#00468A"/>
</linearGradient>
<linearGradient id="paint17_linear" x1="42.0769" y1="50.8104" x2="35.2161" y2="48.5552" gradientUnits="userSpaceOnUse">
<stop stop-color="#4817AF"/>
<stop offset="1" stop-color="#00468A"/>
</linearGradient>
<linearGradient id="paint18_linear" x1="28.7547" y1="38.2354" x2="28.0492" y2="36.2793" gradientUnits="userSpaceOnUse">
<stop stop-color="#4817AF"/>
<stop offset="1" stop-color="#00468A"/>
</linearGradient>
<linearGradient id="paint19_linear" x1="31.93" y1="36.5593" x2="30.2313" y2="31.85" gradientUnits="userSpaceOnUse">
<stop stop-color="#4817AF"/>
<stop offset="1" stop-color="#00468A"/>
</linearGradient>
<linearGradient id="paint20_linear" x1="35.2407" y1="34.813" x2="32.5071" y2="27.2337" gradientUnits="userSpaceOnUse">
<stop stop-color="#4817AF"/>
<stop offset="1" stop-color="#00468A"/>
</linearGradient>
<linearGradient id="paint21_linear" x1="38.8679" y1="64.8567" x2="7.86842" y2="55.8794" gradientUnits="userSpaceOnUse">
<stop stop-color="#4817AF"/>
<stop offset="1" stop-color="#00468A"/>
</linearGradient>
</defs>
</svg>
