<svg width="57" height="57" viewBox="0 0 57 57" fill="none" xmlns="http://www.w3.org/2000/svg">
<path d="M0.5 28.499C0.5 13.0609 13.0594 0.5 28.4968 0.5C43.9344 0.5 56.5 13.0598 56.5 28.499C56.5 43.9384 43.9375 56.5 28.4968 56.5C13.0563 56.5 0.5 43.9373 0.5 28.499ZM1.41194 28.499C1.41194 43.4364 13.5624 55.5878 28.4968 55.5878C43.4311 55.5878 55.5881 43.4353 55.5881 28.499C55.5881 13.5628 43.4355 1.41217 28.4968 1.41217C13.5579 1.41217 1.41194 13.5617 1.41194 28.499Z" fill="black" stroke="url(#paint0_linear)"/>
<path d="M27.432 5.49887L27.432 5.49943C27.4318 5.71072 27.4942 5.91732 27.6114 6.09311C27.7286 6.2689 27.8953 6.40598 28.0905 6.48701C28.2856 6.56803 28.5004 6.58935 28.7076 6.54828C28.9149 6.50721 29.1053 6.40559 29.2548 6.25627C29.4043 6.10695 29.5061 5.91665 29.5474 5.70945C29.5887 5.50225 29.5676 5.28744 29.4868 5.09221C29.406 4.89699 29.2691 4.73012 29.0935 4.61271C28.9178 4.4953 28.7113 4.43264 28.5 4.43264L28.5 4.93264L28.4994 4.43264C28.2166 4.43296 27.9455 4.54536 27.7454 4.74521C27.5453 4.94506 27.4326 5.21607 27.432 5.49887ZM29.6111 7.16294C29.2824 7.38261 28.8959 7.4999 28.5005 7.5H28.5005C27.9701 7.49944 27.4616 7.2885 27.0865 6.91346C26.7116 6.53847 26.5006 6.03005 26.5 5.49975C26.5001 5.10427 26.6173 4.71769 26.8371 4.38886C27.0568 4.05996 27.3692 3.80362 27.7346 3.65224C28.1001 3.50087 28.5022 3.46126 28.8902 3.53843C29.2781 3.6156 29.6345 3.80608 29.9142 4.08579C30.1939 4.36549 30.3844 4.72186 30.4616 5.10982C30.5387 5.49778 30.4991 5.89991 30.3478 6.26537C30.1964 6.63082 29.94 6.94318 29.6111 7.16294Z" fill="black" stroke="url(#paint1_linear)"/>
<path d="M28.4997 49.5C28.1043 49.5001 27.7177 49.6173 27.3889 49.8371C27.06 50.0568 26.8036 50.3692 26.6522 50.7346C26.5009 51.1001 26.4613 51.5022 26.5384 51.8902C26.6156 52.2781 26.8061 52.6345 27.0858 52.9142C27.3655 53.1939 27.7219 53.3844 28.1098 53.4616C28.4978 53.5387 28.8999 53.4991 29.2654 53.3478C29.6308 53.1964 29.9432 52.94 30.1629 52.6111C30.3827 52.2823 30.5 51.8956 30.5 51.5001L28.4997 49.5ZM28.4997 49.5C29.0301 49.5006 29.5385 49.7116 29.9135 50.0865C30.2884 50.4615 30.4993 50.9698 30.5 51.5L28.4997 49.5ZM27.9066 52.388C28.0823 52.5054 28.2888 52.568 28.5 52.568C28.7833 52.568 29.0549 52.4555 29.2552 52.2552C29.4555 52.0549 29.568 51.7832 29.568 51.5C29.568 51.2888 29.5054 51.0823 29.388 50.9067C29.2707 50.731 29.1039 50.5941 28.9087 50.5133C28.7136 50.4325 28.4988 50.4113 28.2916 50.4525C28.0845 50.4937 27.8942 50.5955 27.7448 50.7448C27.5954 50.8942 27.4937 51.0845 27.4525 51.2916C27.4113 51.4988 27.4325 51.7136 27.5133 51.9087C27.5941 52.1039 27.731 52.2707 27.9066 52.388Z" fill="black" stroke="url(#paint2_linear)"/>
<path d="M44.0896 10.5844L44.1192 10.6093C46.748 12.8198 48.858 15.5638 50.3045 18.6522C51.7511 21.7406 52.5 25.1002 52.5 28.5C52.5 31.8998 51.7511 35.2594 50.3045 38.3478C48.858 41.4362 46.748 44.1802 44.1192 46.3907L44.1183 46.3914C44.0362 46.4608 43.9301 46.5 43.8192 46.5C43.8192 46.5 43.8191 46.5 43.8191 46.5H13.1778L44.0896 10.5844ZM44.0896 10.5844C44.0126 10.5302 43.919 10.5 43.8217 10.5L44.0896 10.5844ZM13.1778 10.5H43.8217L13.1777 46.5C13.0668 46.5 12.9607 46.4608 12.8786 46.3914L12.8778 46.3908C10.2499 44.1798 8.14062 41.4355 6.6946 38.3472C5.2486 35.2589 4.5 31.8995 4.5 28.5C4.5 25.1005 5.2486 21.7411 6.6946 18.6528C8.14062 15.5645 10.2499 12.8202 12.8778 10.6092L12.8786 10.6086C12.9607 10.5392 13.0668 10.5 13.1777 10.5C13.1777 10.5 13.1778 10.5 13.1778 10.5ZM43.4628 45.6219H43.6495L43.7905 45.4996C46.2411 43.3735 48.2051 40.7583 49.5501 37.8273C50.8952 34.8963 51.5909 31.717 51.5909 28.5006C51.5909 25.2842 50.8952 22.1049 49.5501 19.1739C48.2051 16.243 46.2418 13.6278 43.7911 11.5017L43.6501 11.3794H43.4634H13.5366H13.3499L13.2089 11.5017C10.7588 13.6282 8.79597 16.2435 7.45132 19.1744C6.10667 22.1053 5.4111 25.2844 5.4111 28.5006C5.4111 31.7168 6.10667 34.896 7.45132 37.8269C8.79597 40.7578 10.7588 43.3731 13.2089 45.4995L13.3499 45.6219H13.5366H43.4628Z" fill="black" stroke="url(#paint3_linear)"/>
<path d="M42.3191 22.4223H41.7413L41.8243 22.9941C41.8708 23.3145 42.0305 23.6079 42.2748 23.8205C42.5191 24.0333 42.8317 24.1511 43.1557 24.1521L43.1573 23.6521L43.1572 24.1521C43.4201 24.1521 43.6772 24.0751 43.8969 23.9307C44.1165 23.7864 44.2892 23.5811 44.3939 23.3401L44.397 23.333L44.3999 23.3258L44.4254 23.2617L44.4316 23.2462L44.4367 23.2303C44.4621 23.1518 44.4804 23.0712 44.4915 22.9895L44.5685 22.4223H43.996H42.3191ZM9.91502 22.4223H9.41502V22.9223V34.0777V34.5777H9.91502H17.7711H18.2711V34.0777V22.9223V22.4223H17.7711H9.91502ZM19.6861 22.4223H19.1861V22.9223V34.0777V34.5777H19.6861H27.5422H28.0422V34.0777V22.9223V22.4223H27.5422H19.6861ZM29.4572 22.4223H28.9572V22.9223V34.0777V34.5777H29.4572H37.3132H37.8132V34.0777V22.9223V22.4223H37.3132H29.4572ZM47.085 34.5777H47.5851L47.585 34.0776L47.5824 22.9253L47.5823 22.4255H47.0824H45.9136H45.4369L45.4142 22.9017C45.4035 23.1268 45.3613 23.3493 45.2891 23.5627L45.2815 23.5837L45.2339 23.7048L45.2332 23.7066L43.7241 27.5857L43.7241 27.5858C43.7021 27.6424 43.6693 27.6939 43.6275 27.7376C43.5858 27.7812 43.5361 27.816 43.4812 27.8402C43.4263 27.8644 43.3672 27.8774 43.3074 27.8786C43.2476 27.8799 43.1881 27.8693 43.1323 27.8474L43.1321 27.8473C43.0763 27.8255 43.0252 27.7927 42.9818 27.7509C42.9383 27.7091 42.9034 27.6589 42.8791 27.6033C42.8549 27.5477 42.8417 27.4878 42.8404 27.427C42.8392 27.3662 42.8499 27.3058 42.8719 27.2492L42.8719 27.2491L43.456 25.7472L43.7044 25.1084L43.0203 25.0669C42.4626 25.0331 41.9368 24.7933 41.5441 24.3934C41.1514 23.9933 40.9196 23.4613 40.894 22.8995L40.8722 22.4223H40.3945H39.2257H38.7257V22.9223V34.0771V34.5771H39.2257H40.7577H41.0299L41.1777 34.3485C41.2738 34.1998 41.3861 34.0623 41.5126 33.9387L41.8018 33.6561L41.5858 33.3142C41.4071 33.0312 41.3073 32.7051 41.2969 32.37C41.2866 32.0348 41.3661 31.7031 41.5269 31.4095C41.6878 31.1159 41.9242 30.8713 42.211 30.701C42.4979 30.5308 42.8249 30.441 43.1579 30.441C43.4909 30.441 43.8179 30.5308 44.1048 30.701C44.3916 30.8713 44.628 31.1159 44.7889 31.4095C44.9498 31.7031 45.0292 32.0348 45.0189 32.37C45.0085 32.7051 44.9087 33.0312 44.73 33.3142L44.5121 33.6591L44.8064 33.9418C44.934 34.0644 45.0473 34.2014 45.1438 34.3501L45.2917 34.5777H45.5632H47.085ZM42.8012 26.0516L42.4059 27.0679L42.8012 26.0516ZM8.95751 21.5H48.0425C48.1632 21.5 48.2794 21.5481 48.3653 21.6344C48.4513 21.7207 48.5 21.8382 48.5 21.9611V35.0389C48.5 35.1618 48.4513 35.2793 48.3653 35.3656C48.2794 35.4519 48.1632 35.5 48.0425 35.5H8.95751C8.83679 35.5 8.72062 35.4519 8.63467 35.3656C8.54866 35.2793 8.5 35.1618 8.5 35.0389V21.9611C8.5 21.8382 8.54866 21.7207 8.63467 21.6344C8.72062 21.5481 8.83679 21.5 8.95751 21.5ZM42.6305 33.1045C42.7863 33.209 42.9696 33.2648 43.1573 33.2648C43.409 33.2648 43.65 33.1644 43.8274 32.9864C44.0048 32.8083 44.1041 32.5673 44.1041 32.3163C44.1041 32.1291 44.0488 31.946 43.945 31.7901C43.8412 31.6341 43.6934 31.5123 43.5202 31.4403C43.347 31.3682 43.1562 31.3493 42.9722 31.3861C42.7882 31.4228 42.6194 31.5135 42.4871 31.6463C42.3548 31.779 42.2649 31.948 42.2285 32.1316C42.1922 32.3152 42.2108 32.5056 42.2822 32.6787C42.3537 32.8518 42.4748 33.0001 42.6305 33.1045Z" fill="black" stroke="url(#paint4_linear)"/>
<path d="M34.2824 30.5013L34.5753 29.8367L33.85 29.8002C33.1832 29.7667 32.5692 29.5041 32.1346 29.0844C31.7021 28.6666 31.4828 28.1292 31.5011 27.5893C31.5194 27.049 31.7752 26.5218 32.238 26.1255C32.7025 25.7277 33.3352 25.4981 34.0031 25.5L34.0046 25L34.0042 25.5C34.6845 25.5006 35.3264 25.7408 35.791 26.1525C36.2532 26.5621 36.4994 27.1034 36.5 27.653C36.4985 27.8898 36.4531 28.1258 36.3646 28.3521L36.3635 28.3547L36.3633 28.3551L36.3626 28.3565L36.359 28.3644L36.3314 28.4256L36.3278 28.4335L36.3246 28.4415C36.32 28.4526 36.316 28.4618 36.3125 28.4694C36.3064 28.4816 36.3007 28.494 36.2954 28.5068L34.6677 32.1976L34.6676 32.1975L34.6636 32.2072C34.6439 32.2544 34.612 32.302 34.5663 32.3455C34.5204 32.389 34.4618 32.4271 34.3926 32.4547C34.3233 32.4823 34.2465 32.4981 34.1672 32.4998C34.0879 32.5016 34.0099 32.4893 33.9385 32.4646C33.867 32.4398 33.8054 32.404 33.7562 32.3617C33.707 32.3195 33.6717 32.2724 33.649 32.2252C33.6263 32.1782 33.6156 32.1303 33.6153 32.0839C33.615 32.0375 33.625 31.9897 33.6469 31.9427L33.647 31.9427L33.6512 31.9331L34.2824 30.5013ZM36.3619 28.3585C36.3618 28.3587 36.3618 28.3587 36.3619 28.3584L36.3619 28.3585ZM35.2843 28.2261L35.2918 28.2119L35.2983 28.1972L35.3321 28.1206L34.8749 27.9182L35.3426 28.095C35.3952 27.9559 35.4237 27.809 35.426 27.6599L35.4261 27.6599L35.4261 27.6516C35.4259 27.3081 35.2819 26.9884 35.0412 26.7511C34.8022 26.5154 34.4838 26.3752 34.1515 26.3434C33.8192 26.3115 33.4802 26.3884 33.1981 26.5681C32.9149 26.7484 32.7015 27.0254 32.6192 27.357C32.5365 27.6905 32.5977 28.0364 32.7813 28.3236C32.9633 28.6083 33.2477 28.8096 33.5679 28.905C33.8879 29.0003 34.2352 28.9881 34.5472 28.8691C34.8596 28.7499 35.1275 28.5266 35.2843 28.2261Z" fill="black" stroke="url(#paint5_linear)"/>
<path d="M24.5756 29.8367L24.2827 30.5013L23.6514 31.9332L23.6472 31.9427L23.6471 31.9427C23.6252 31.9897 23.6152 32.0375 23.6155 32.0839C23.6158 32.1303 23.6265 32.1781 23.6492 32.2252C23.672 32.2724 23.7073 32.3195 23.7564 32.3617C23.8057 32.404 23.8673 32.4398 23.9387 32.4645C24.0102 32.4893 24.0882 32.5016 24.1675 32.4998C24.2469 32.4981 24.3237 32.4823 24.393 32.4547C24.4623 32.4271 24.5208 32.389 24.5667 32.3455C24.6125 32.302 24.6444 32.2544 24.6641 32.2072L24.6681 32.1975L24.6682 32.1975L26.2938 28.5125C26.2997 28.4978 26.3061 28.4835 26.3131 28.4696C26.3166 28.462 26.3206 28.4527 26.3252 28.4415L26.3285 28.4335L26.3321 28.4256L26.3583 28.3676L26.3606 28.3621L26.3626 28.3576L26.364 28.3544L24.5756 29.8367ZM24.5756 29.8367L23.8503 29.8002C23.1835 29.7667 22.5694 29.5041 22.1348 29.0845C21.7022 28.6667 21.4828 28.1293 21.5011 27.5895C21.5193 27.0493 21.7751 26.5222 22.2377 26.1258C22.7022 25.7279 23.3348 25.4982 24.0029 25.5L24.0042 25L24.0038 25.5C24.6843 25.5006 25.3262 25.7408 25.7909 26.1525C26.2533 26.5622 26.4995 27.1037 26.5 27.6534C26.4989 27.8903 26.4536 28.1266 26.3647 28.3529L24.5756 29.8367ZM25.3326 28.1206L25.3384 28.1075L25.3435 28.094C25.3958 27.9547 25.4238 27.8076 25.4258 27.6585L25.4258 27.6585L25.4258 27.6509C25.4251 27.3071 25.2805 26.9872 25.0392 26.75C24.7995 26.5143 24.4806 26.3745 24.1478 26.343C23.8151 26.3116 23.4759 26.389 23.1936 26.5693C22.9104 26.7502 22.6972 27.028 22.6155 27.36C22.5333 27.6941 22.5953 28.0402 22.7796 28.3273C22.9623 28.612 23.2475 28.813 23.5682 28.9079C23.8887 29.0028 24.2364 28.99 24.5486 28.8703C24.8612 28.7504 25.1289 28.5263 25.2853 28.2251L25.2924 28.2114L25.2987 28.1972L25.3326 28.1206Z" fill="black" stroke="url(#paint6_linear)"/>
<path d="M14.0014 25.5L14.003 25.5C14.3385 25.4999 14.6697 25.5586 14.9771 25.6716C15.2846 25.7845 15.5603 25.9489 15.79 26.1527C16.0196 26.3563 16.1981 26.5949 16.3186 26.853C16.4388 27.1104 16.4997 27.3838 16.5 27.6582C16.4988 27.8956 16.4534 28.1321 16.3646 28.3588L16.3634 28.3617L16.3632 28.3622L16.3625 28.3635L16.359 28.3714L16.3313 28.4327L16.3248 28.4474L16.3191 28.4624C16.3181 28.465 16.3168 28.4683 16.3152 28.472L16.309 28.483L16.2991 28.5056L14.6693 32.2118L14.6691 32.2121C14.6484 32.2593 14.6156 32.3065 14.5694 32.3493C14.523 32.3923 14.4644 32.4295 14.3955 32.4564C14.3266 32.4832 14.2506 32.4984 14.1723 32.4999C14.0939 32.5014 14.0169 32.489 13.9462 32.4646C13.8756 32.4402 13.8145 32.4048 13.7654 32.3629C13.7163 32.3212 13.6807 32.2745 13.6574 32.2273C13.6342 32.1804 13.6228 32.1326 13.6217 32.0861C13.6206 32.0396 13.6296 31.9918 13.6502 31.9449L14.2809 30.5107L14.5729 29.8466L13.8484 29.81C13.1824 29.7765 12.5689 29.5136 12.1346 29.093C11.7023 28.6744 11.4827 28.1356 11.5011 27.594C11.5194 27.052 11.7754 26.5236 12.2379 26.1265C12.7021 25.7279 13.3342 25.4981 14.0014 25.5ZM16.3617 28.3657C16.3617 28.3658 16.3617 28.3657 16.3618 28.3655L16.3618 28.3655L16.3617 28.3657ZM15.2842 28.2302L15.2914 28.2165L15.2976 28.2023L15.3315 28.1256L14.8741 27.9236L15.3423 28.099C15.3945 27.9596 15.4225 27.8126 15.4245 27.6634L15.4245 27.6634L15.4245 27.6558C15.4238 27.312 15.2796 26.9919 15.0385 26.7543C14.799 26.5183 14.4801 26.378 14.1472 26.3465C13.8144 26.3149 13.475 26.3926 13.1929 26.5733C12.9097 26.7547 12.6969 27.0328 12.6153 27.3649C12.5334 27.6989 12.5952 28.0451 12.7792 28.3325C12.9616 28.6175 13.2465 28.819 13.5674 28.9142C13.888 29.0094 14.2358 28.9964 14.5481 28.8764C14.8607 28.7562 15.1282 28.5316 15.2842 28.2302Z" fill="black" stroke="url(#paint7_linear)"/>
<defs>
<linearGradient id="paint0_linear" x1="72.6071" y1="82.2429" x2="-17.5112" y2="30.4964" gradientUnits="userSpaceOnUse">
<stop stop-color="#4817AF"/>
<stop offset="1" stop-color="#00468A"/>
</linearGradient>
<linearGradient id="paint1_linear" x1="32.369" y1="10.2143" x2="24.4639" y2="5.67512" gradientUnits="userSpaceOnUse">
<stop stop-color="#4817AF"/>
<stop offset="1" stop-color="#00468A"/>
</linearGradient>
<linearGradient id="paint2_linear" x1="32.369" y1="56.2143" x2="24.4639" y2="51.6751" gradientUnits="userSpaceOnUse">
<stop stop-color="#4817AF"/>
<stop offset="1" stop-color="#00468A"/>
</linearGradient>
<linearGradient id="paint3_linear" x1="66.4167" y1="63.3857" x2="1.14669" y2="13.7522" gradientUnits="userSpaceOnUse">
<stop stop-color="#4817AF"/>
<stop offset="1" stop-color="#00468A"/>
</linearGradient>
<linearGradient id="paint4_linear" x1="60.2262" y1="42.6429" x2="35.3383" y2="3.58146" gradientUnits="userSpaceOnUse">
<stop stop-color="#4817AF"/>
<stop offset="1" stop-color="#00468A"/>
</linearGradient>
<linearGradient id="paint5_linear" x1="38.6429" y1="36.5429" x2="28.0024" y2="31.9605" gradientUnits="userSpaceOnUse">
<stop stop-color="#4817AF"/>
<stop offset="1" stop-color="#00468A"/>
</linearGradient>
<linearGradient id="paint6_linear" x1="28.6429" y1="36.5429" x2="18.0024" y2="31.9605" gradientUnits="userSpaceOnUse">
<stop stop-color="#4817AF"/>
<stop offset="1" stop-color="#00468A"/>
</linearGradient>
<linearGradient id="paint7_linear" x1="18.6429" y1="36.5429" x2="8.00243" y2="31.9605" gradientUnits="userSpaceOnUse">
<stop stop-color="#4817AF"/>
<stop offset="1" stop-color="#00468A"/>
</linearGradient>
</defs>
</svg>
