<svg width="125" height="63" viewBox="0 0 125 63" fill="none" xmlns="http://www.w3.org/2000/svg">
<path d="M111.131 56.182C113.111 56.182 114.726 54.5949 114.726 52.6149C114.726 50.6507 113.126 49.0479 111.131 49.0479" stroke="black" stroke-width="2" stroke-miterlimit="10" stroke-linecap="round" stroke-linejoin="round"/>
<path d="M45.2174 43.3926H10.2964C5.16518 43.3926 1 47.5253 1 52.6166C1 57.7079 5.16518 61.8407 10.2964 61.8407H114.394C119.526 61.8407 123.691 57.7079 123.691 52.6166C123.691 47.5253 119.526 43.3926 114.394 43.3926H79.4733" stroke="black" stroke-width="2" stroke-miterlimit="10" stroke-linecap="round" stroke-linejoin="round"/>
<path d="M45.2168 61.84V43.3919V22.0367V1.56152H79.4726V22.0367V43.3919V61.84" stroke="black" stroke-width="2" stroke-miterlimit="10" stroke-linecap="round" stroke-linejoin="round"/>
<path d="M104.48 24.2207H90.9707V36.9804H104.48V24.2207Z" stroke="black" stroke-width="2" stroke-miterlimit="10" stroke-linecap="round" stroke-linejoin="round"/>
<path d="M9.88433 31.9357C9.88433 32.5329 9.39337 33.0043 8.8074 33.0043C8.20558 33.0043 7.73047 32.5171 7.73047 31.9357C7.73047 31.3543 8.20558 30.8672 8.79156 30.8672C9.39337 30.8672 9.88433 31.3543 9.88433 31.9357Z" stroke="black" stroke-width="2" stroke-miterlimit="10" stroke-linecap="round" stroke-linejoin="round"/>
<path d="M18.7378 31.9357C18.7378 32.5329 18.2469 33.0043 17.6609 33.0043C17.0591 33.0043 16.584 32.5171 16.584 31.9357C16.584 31.3543 17.0749 30.8672 17.6609 30.8672C18.2469 30.8672 18.7378 31.3543 18.7378 31.9357Z" stroke="black" stroke-width="2" stroke-miterlimit="10" stroke-linecap="round" stroke-linejoin="round"/>
<path d="M27.5894 31.9357C27.5894 32.5329 27.0985 33.0043 26.5125 33.0043C25.9107 33.0043 25.4355 32.5171 25.4355 31.9357C25.4355 31.3543 25.9265 30.8672 26.5125 30.8672C27.1143 30.8672 27.5894 31.3543 27.5894 31.9357Z" stroke="black" stroke-width="2" stroke-miterlimit="10" stroke-linecap="round" stroke-linejoin="round"/>
<path d="M35.366 33.0043C35.9608 33.0043 36.4429 32.5259 36.4429 31.9357C36.4429 31.3456 35.9608 30.8672 35.366 30.8672C34.7712 30.8672 34.2891 31.3456 34.2891 31.9357C34.2891 32.5259 34.7712 33.0043 35.366 33.0043Z" stroke="black" stroke-width="2" stroke-miterlimit="10" stroke-linecap="round" stroke-linejoin="round"/>
<path d="M13.5579 56.182C11.5783 56.182 9.96289 54.5949 9.96289 52.6149C9.96289 50.6507 11.5624 49.0479 13.5579 49.0479" stroke="black" stroke-width="2" stroke-miterlimit="10" stroke-linecap="round" stroke-linejoin="round"/>
<path d="M62.3385 10.6914C56.0353 10.6914 50.9199 15.767 50.9199 22.0211H73.773C73.773 15.767 68.6576 10.6914 62.3385 10.6914Z" stroke="black" stroke-width="2" stroke-miterlimit="10" stroke-linecap="round" stroke-linejoin="round"/>
<path d="M62.3379 22.0362L65.5053 17.7148" stroke="black" stroke-width="2" stroke-miterlimit="10" stroke-linecap="round" stroke-linejoin="round"/>
<path d="M52.4395 32.8643H60.1047" stroke="black" stroke-width="2" stroke-miterlimit="10" stroke-linecap="round" stroke-linejoin="round"/>
<path d="M52.4395 43.0146H60.1047" stroke="black" stroke-width="2" stroke-miterlimit="10" stroke-linecap="round" stroke-linejoin="round"/>
</svg>
