<svg width="94" height="88" viewBox="0 0 94 88" fill="none" xmlns="http://www.w3.org/2000/svg">
<path d="M33.8321 20.7196H44.0404H88.5475V1H44.0404H1V20.7196H14.2142" stroke="black" stroke-width="2" stroke-miterlimit="10" stroke-linecap="round" stroke-linejoin="round"/>
<path d="M1 20.7197V86.6744H88.6201" stroke="black" stroke-width="2" stroke-miterlimit="10" stroke-linecap="round" stroke-linejoin="round"/>
<path d="M33.834 86.6744V20.7197" stroke="black" stroke-width="2" stroke-miterlimit="10" stroke-linecap="round" stroke-linejoin="round"/>
<path d="M71.6157 61.4801V53.6968L64.6602 47.7577V31.1602" stroke="black" stroke-width="2" stroke-miterlimit="10" stroke-linecap="round" stroke-linejoin="round"/>
<path d="M71.6172 53.6968L78.5873 47.7577V31.1602" stroke="black" stroke-width="2" stroke-miterlimit="10" stroke-linecap="round" stroke-linejoin="round"/>
<path d="M26.092 61.48C26.092 62.3658 25.3804 63.0918 24.4801 63.0918C23.5943 63.0918 22.8828 62.3803 22.8828 61.48C22.8828 60.5942 23.5943 59.8682 24.4801 59.8682C25.3659 59.8827 26.092 60.5942 26.092 61.48Z" stroke="black" stroke-width="2" stroke-miterlimit="10" stroke-linecap="round" stroke-linejoin="round"/>
<path d="M12.6163 61.48C12.6163 62.3658 11.9047 63.0918 11.0044 63.0918C10.1041 63.0918 9.39258 62.3803 9.39258 61.48C9.39258 60.5942 10.1041 59.8682 11.0044 59.8682C11.9047 59.8682 12.6163 60.5942 12.6163 61.48Z" stroke="black" stroke-width="2" stroke-miterlimit="10" stroke-linecap="round" stroke-linejoin="round"/>
<path d="M17.801 32.6992C12.5153 32.6992 8.24609 36.9829 8.24609 42.2541H27.3703C27.3703 36.9829 23.0866 32.6992 17.801 32.6992Z" stroke="black" stroke-width="2" stroke-miterlimit="10" stroke-linecap="round" stroke-linejoin="round"/>
<path d="M17.8008 42.2545L20.008 38.3193" stroke="black" stroke-width="2" stroke-miterlimit="10" stroke-linecap="round" stroke-linejoin="round"/>
<path d="M39.582 73.5332H92.0031" stroke="black" stroke-width="2" stroke-miterlimit="10" stroke-linecap="round" stroke-linejoin="round"/>
<path d="M84.5688 20.7197V31.1604H58.6777V20.7197" stroke="black" stroke-width="2" stroke-miterlimit="10" stroke-linecap="round" stroke-linejoin="round"/>
<path d="M84.5684 74.1709V86.6735" stroke="black" stroke-width="2" stroke-miterlimit="10" stroke-linecap="round" stroke-linejoin="round"/>
<path d="M48.1211 86.6735V74.1709" stroke="black" stroke-width="2" stroke-miterlimit="10" stroke-linecap="round" stroke-linejoin="round"/>
<path d="M66.0979 69.0752L62.4531 64.9512" stroke="black" stroke-width="2" stroke-miterlimit="10" stroke-linecap="round" stroke-linejoin="round"/>
<path d="M77.1328 69.0752L80.7921 64.9512" stroke="black" stroke-width="2" stroke-miterlimit="10" stroke-linecap="round" stroke-linejoin="round"/>
</svg>
