<svg width="86" height="132" viewBox="0 0 86 132" fill="none" xmlns="http://www.w3.org/2000/svg">
<path d="M42.4986 130.503C19.6166 130.503 1 111.882 1 88.9935V57.0801H24.0285V88.9935C24.0285 99.1807 32.3138 107.469 42.4986 107.469C52.6834 107.469 60.9686 99.1807 60.9686 88.9935V57.0801H83.9971V88.9935C83.9982 111.882 65.3816 130.503 42.4986 130.503Z" stroke="black" stroke-width="2" stroke-miterlimit="10" stroke-linejoin="round"/>
<path d="M24.0285 35.9648H1V57.0807H24.0285V35.9648Z" stroke="black" stroke-width="2" stroke-miterlimit="10" stroke-linejoin="round"/>
<path d="M84.0012 35.9648H60.9727V57.0807H84.0012V35.9648Z" stroke="black" stroke-width="2" stroke-miterlimit="10" stroke-linejoin="round"/>
<path d="M24.0293 23.2494H27.5064L32.0649 41.9651L51.3748 1.6543L56.1726 23.2494H60.9704" stroke="black" stroke-width="2" stroke-miterlimit="10" stroke-linejoin="round"/>
<path d="M12.5156 17.6738V28.9496" stroke="black" stroke-width="2" stroke-miterlimit="10" stroke-linejoin="round"/>
<path d="M18.1512 23.3125H6.87891" stroke="black" stroke-width="2" stroke-miterlimit="10" stroke-linejoin="round"/>
<path d="M78.12 23.3076H66.8477" stroke="black" stroke-width="2" stroke-miterlimit="10" stroke-linejoin="round"/>
</svg>
