<svg width="72" height="92" viewBox="0 0 72 92" fill="none" xmlns="http://www.w3.org/2000/svg">
<path d="M28.0972 67.5343C23.3198 66.6775 19.0651 65.0076 15.6963 62.8004C11.6884 60.1576 8.94396 55.9755 7.72419 51.3288L1.88672 29.3584" stroke="black" stroke-width="2" stroke-miterlimit="10" stroke-linecap="round" stroke-linejoin="round"/>
<path d="M69.8155 27.9502L63.6005 51.3727C62.3807 55.9904 59.6507 60.1434 55.672 62.7717C52.2886 65.008 48.0194 66.6779 43.2129 67.5491" stroke="black" stroke-width="2" stroke-miterlimit="10" stroke-linecap="round" stroke-linejoin="round"/>
<path d="M30.0733 66.4602C30.0733 52.7668 27.1255 43.9525 17.7449 36.9243C14.71 34.6591 9.81641 31.8275 9.81641 28.2262C9.81641 19.0489 21.3897 11.5996 35.6639 11.5996C49.9381 11.5996 61.5114 19.0489 61.5114 28.2262C61.5114 31.8275 56.6178 34.6445 53.5829 36.9243C44.2168 43.938 41.0948 52.7233 41.24 66.3731C41.3126 73.2415 41.3562 76.988 41.3562 76.988C41.3562 76.988 49.154 77.0461 51.0708 82.535C52.7116 87.2398 47.76 93.7162 40.18 86.7026C35.4461 90.1295 20.9105 94.0067 17.9046 86.6445C14.0856 77.2493 25.9638 75.623 30.0297 75.8989C30.233 73.8079 30.0733 66.7361 30.0733 66.4602Z" stroke="black" stroke-width="2" stroke-miterlimit="10" stroke-linecap="round" stroke-linejoin="round"/>
<path d="M25.3663 45.4615C11.2519 42.6444 1 34.1786 1 24.1736C1 11.8598 16.5085 1.88379 35.6473 1.88379C54.786 1.88379 70.2945 11.8598 70.2945 24.1736C70.2945 34.2222 59.9555 42.717 45.7539 45.4906" stroke="black" stroke-width="2" stroke-miterlimit="10" stroke-linecap="round" stroke-linejoin="round"/>
</svg>
