<svg width="89" height="88" viewBox="0 0 89 88" fill="none" xmlns="http://www.w3.org/2000/svg">
<path d="M87.7488 1H1V22.2879H87.7488V1Z" stroke="black" stroke-width="2" stroke-miterlimit="10" stroke-linecap="round" stroke-linejoin="round"/>
<path d="M51.9127 23.3467V37.6354H36.8398V23.3467" stroke="black" stroke-width="2" stroke-miterlimit="10" stroke-linecap="round" stroke-linejoin="round"/>
<path d="M62.0178 37.6367H26.7461V49.7473H62.0178V37.6367Z" stroke="black" stroke-width="2" stroke-miterlimit="10" stroke-linecap="round" stroke-linejoin="round"/>
<path d="M1 86.6738H87.7488" stroke="black" stroke-width="2" stroke-miterlimit="10" stroke-linecap="round" stroke-linejoin="round"/>
<path d="M53.93 63.0771H34.8203V73.5759H53.93V63.0771Z" stroke="black" stroke-width="2" stroke-miterlimit="10" stroke-linecap="round" stroke-linejoin="round"/>
<path d="M60.579 73.5771H28.168V86.6751H60.579V73.5771Z" stroke="black" stroke-width="2" stroke-miterlimit="10" stroke-linecap="round" stroke-linejoin="round"/>
<path d="M9.50977 22.2881V86.6745" stroke="black" stroke-width="2" stroke-miterlimit="10" stroke-linecap="round" stroke-linejoin="round"/>
<path d="M79.2402 22.2881V86.6745" stroke="black" stroke-width="2" stroke-miterlimit="10" stroke-linecap="round" stroke-linejoin="round"/>
<path d="M66.5491 6.30078C61.0311 6.30078 56.5586 10.7733 56.5586 16.2913H76.5396C76.5396 10.7733 72.0671 6.30078 66.5491 6.30078Z" stroke="black" stroke-width="2" stroke-miterlimit="10" stroke-linecap="round" stroke-linejoin="round"/>
<path d="M66.5488 16.292L68.8432 12.168" stroke="black" stroke-width="2" stroke-miterlimit="10" stroke-linecap="round" stroke-linejoin="round"/>
<path d="M29.3309 12.1098C29.3309 12.952 28.6484 13.62 27.8207 13.62C26.993 13.62 26.3105 12.9375 26.3105 12.1098C26.3105 11.2676 26.993 10.5996 27.8207 10.5996C28.6484 10.5996 29.3309 11.2676 29.3309 12.1098Z" stroke="black" stroke-width="2" stroke-miterlimit="10" stroke-linecap="round" stroke-linejoin="round"/>
<path d="M13.7059 12.1081C13.7059 12.9503 13.0234 13.6183 12.1957 13.6183C11.3535 13.6183 10.6855 12.9358 10.6855 12.1081C10.6855 11.2659 11.368 10.5979 12.1957 10.5979C13.0234 10.5834 13.7059 11.2659 13.7059 12.1081Z" stroke="black" stroke-width="2" stroke-miterlimit="10" stroke-linecap="round" stroke-linejoin="round"/>
</svg>
