<svg width="96" height="85" viewBox="0 0 96 85" fill="none" xmlns="http://www.w3.org/2000/svg">
<path d="M92.595 56.7807H2.72441C1.77188 56.7807 1 56.0089 1 55.0566V5.28857C1 4.33621 1.77188 3.56445 2.72441 3.56445H92.595C93.5475 3.56445 94.3194 4.33621 94.3194 5.28857V55.0572C94.3194 56.0089 93.5475 56.7807 92.595 56.7807Z" stroke="black" stroke-width="2" stroke-miterlimit="10" stroke-linecap="round"/>
<path d="M17.416 83.7701V59.3453L21.9427 1" stroke="black" stroke-width="2" stroke-miterlimit="10" stroke-linecap="round"/>
<path d="M28.5341 1L23.9414 59.3426" stroke="black" stroke-width="2" stroke-miterlimit="10" stroke-linecap="round"/>
<path d="M35.1259 1L30.5332 59.3426" stroke="black" stroke-width="2" stroke-miterlimit="10" stroke-linecap="round"/>
<path d="M41.7157 1L37.123 59.3426" stroke="black" stroke-width="2" stroke-miterlimit="10" stroke-linecap="round"/>
<path d="M48.3075 1L43.7148 59.3426" stroke="black" stroke-width="2" stroke-miterlimit="10" stroke-linecap="round"/>
<path d="M54.8993 1L50.3066 59.3426" stroke="black" stroke-width="2" stroke-miterlimit="10" stroke-linecap="round"/>
<path d="M61.4911 1L56.8984 59.3426" stroke="black" stroke-width="2" stroke-miterlimit="10" stroke-linecap="round"/>
<path d="M68.0809 1L63.4883 59.3426" stroke="black" stroke-width="2" stroke-miterlimit="10" stroke-linecap="round"/>
<path d="M74.6727 1L70.0801 59.3426" stroke="black" stroke-width="2" stroke-miterlimit="10" stroke-linecap="round"/>
<path d="M80.8734 1L76.5098 57.6322" stroke="black" stroke-width="2" stroke-miterlimit="10" stroke-linecap="round"/>
<path d="M76.5172 56.7803L76.4512 83.7709" stroke="black" stroke-width="2" stroke-miterlimit="10" stroke-linecap="round"/>
</svg>
